<?xml version="1.0" standalone="no"?>
<!DOCTYPE svg PUBLIC "-//W3C//DTD SVG 20010904//EN"
 "http://www.w3.org/TR/2001/REC-SVG-20010904/DTD/svg10.dtd">
<svg version="1.0" xmlns="http://www.w3.org/2000/svg"
 width="427.000000pt" height="366.000000pt" viewBox="0 0 427.000000 366.000000"
 preserveAspectRatio="xMidYMid meet">

<g transform="translate(0.000000,366.000000) scale(0.100000,-0.100000)"
fill="#000000" stroke="none">
<path d="M0 1830 l0 -1830 2135 0 2135 0 0 1830 0 1830 -2135 0 -2135 0 0
-1830z m2210 980 c63 -10 202 -40 208 -45 5 -5 -50 -109 -61 -117 -7 -4 -4
-50 12 -145 13 -76 25 -142 28 -146 3 -5 14 0 25 10 20 18 21 17 74 -42 30
-33 54 -65 54 -71 0 -7 -16 -24 -36 -39 -31 -24 -39 -26 -61 -16 -14 7 -27 10
-29 8 -3 -2 3 -52 13 -110 16 -101 16 -107 -2 -146 -10 -23 -16 -44 -12 -47
10 -11 49 8 86 41 l36 33 92 -37 c83 -32 93 -39 93 -61 1 -35 33 -101 63 -128
31 -29 80 -41 127 -31 19 4 38 5 42 3 5 -3 26 -32 48 -64 34 -50 37 -60 25
-70 -17 -14 -60 1 -252 91 -111 53 -123 60 -123 84 0 16 -12 38 -29 56 -53 53
-134 33 -156 -39 -9 -30 12 -88 38 -107 28 -19 86 -19 107 0 15 14 27 11 116
-31 54 -26 137 -61 184 -79 119 -47 117 -62 -15 -93 -93 -22 -100 -23 -110 -7
-49 83 -88 117 -158 136 -93 25 -198 -25 -239 -111 -13 -27 -27 -49 -32 -50
-5 0 -38 16 -74 36 -53 30 -75 37 -120 36 -35 0 -60 5 -69 14 -8 8 -10 14 -4
14 5 0 13 -4 16 -10 3 -5 16 -10 28 -9 15 0 17 2 7 6 -8 3 -17 10 -20 14 -3 4
-17 10 -30 13 -14 2 -58 21 -98 40 -40 20 -75 36 -78 36 -3 0 -30 11 -59 25
-31 14 -62 22 -71 18 -12 -4 -15 -3 -10 5 4 7 1 12 -8 12 -18 0 -21 -16 -6
-25 6 -3 10 -11 10 -18 0 -6 -7 -1 -16 11 -8 12 -12 27 -9 32 3 6 -6 15 -21
20 -21 8 -39 6 -85 -12 -31 -12 -55 -26 -53 -30 3 -4 16 -1 29 8 23 15 96 11
93 -5 -2 -20 3 -41 10 -37 4 2 14 1 22 -5 12 -7 10 -9 -7 -9 -16 0 -23 -6 -23
-20 0 -11 -4 -20 -10 -20 -5 0 -10 -4 -10 -10 0 -6 61 -10 163 -9 128 0 169
-3 192 -15 l30 -16 -50 1 c-40 1 -45 3 -25 9 14 5 -52 8 -155 7 -178 -1 -179
-1 -55 -7 l125 -6 -110 -4 c-97 -4 -86 -5 90 -10 l200 -6 -266 -2 c-275 -2
-332 -7 -326 -26 6 -18 91 -25 427 -36 11 0 9 -4 -5 -12 -26 -16 -44 -18 -51
-7 -7 11 -122 11 -149 -1 -19 -8 -19 -9 3 -9 19 -1 22 -6 22 -41 0 -31 -4 -40
-17 -40 -10 0 -28 -18 -41 -40 -14 -25 -30 -40 -42 -40 -10 0 -23 -8 -28 -17
-11 -19 -84 -31 -194 -32 -63 -1 -68 1 -80 26 -15 31 -44 38 -58 15 -16 -28
-11 -3 6 29 8 17 13 33 10 37 -3 3 -6 -1 -6 -9 -1 -8 -7 -3 -15 11 -9 16 -14
19 -15 10 0 -9 5 -21 12 -28 6 -6 8 -15 3 -19 -4 -5 -10 -2 -12 5 -3 6 -9 9
-15 6 -6 -4 -8 2 -4 17 3 13 3 18 0 12 -8 -19 -27 -16 -20 3 4 11 -1 18 -14
21 -11 3 -20 11 -20 18 0 13 -33 55 -44 55 -3 0 24 -45 61 -99 37 -55 71 -97
75 -95 4 3 5 -1 3 -8 -3 -8 9 -33 27 -56 26 -34 34 -39 41 -26 5 8 6 22 3 30
-4 10 -2 12 6 8 6 -4 17 1 25 11 11 16 13 17 13 2 0 -9 -6 -20 -14 -24 -7 -4
-18 -18 -25 -31 -10 -19 -8 -28 20 -69 19 -28 34 -42 37 -34 2 7 -1 17 -8 21
-7 4 -9 16 -5 29 5 17 3 20 -11 14 -14 -5 -14 -3 2 15 10 12 22 22 27 22 5 0
4 -6 -2 -13 -13 -16 -5 -28 14 -20 19 7 51 -12 36 -21 -6 -4 -11 -2 -11 3 0 6
-7 11 -15 11 -8 0 -15 -4 -15 -10 0 -5 5 -10 10 -10 6 0 10 -5 10 -11 0 -8 -5
-7 -15 1 -9 7 -18 11 -20 8 -3 -3 1 -11 9 -17 12 -10 47 6 188 85 189 106 206
118 168 111 -14 -2 -19 -2 -12 0 7 3 9 9 6 15 -4 6 3 5 16 -2 25 -13 51 -7 48
12 -2 8 5 12 15 10 19 -3 157 77 157 92 0 4 -8 5 -17 2 -15 -6 -15 -4 2 14 20
22 44 28 26 7 -11 -14 -5 -27 11 -27 5 0 6 5 3 11 -4 6 -1 9 7 7 8 -2 39 12
69 31 30 19 59 36 64 37 6 1 18 5 27 9 14 5 32 -15 87 -101 58 -91 68 -111 57
-124 -26 -31 -128 -152 -327 -385 -113 -132 -274 -322 -358 -423 -88 -106
-163 -187 -179 -194 -15 -6 -62 -13 -105 -16 -161 -10 -244 63 -220 193 5 23
9 25 40 20 31 -5 40 0 81 42 26 25 40 44 31 40 -10 -3 -45 -11 -78 -18 -55
-11 -65 -10 -97 7 -35 18 -36 20 -30 64 9 72 26 80 170 81 92 0 115 3 96 10
-14 6 -44 11 -67 12 -22 1 -40 4 -38 8 2 3 -18 10 -46 15 -27 6 -49 7 -49 2 0
-5 -5 -6 -10 -3 -6 3 -13 0 -16 -9 -5 -12 -10 -11 -30 7 -23 19 -24 27 -24
133 0 85 -4 116 -15 127 -14 14 -11 27 7 27 5 0 7 -4 4 -9 -3 -5 1 -12 10 -15
9 -4 14 -9 11 -13 -4 -3 -2 -12 4 -19 6 -8 12 -38 12 -69 l1 -55 28 27 c30 29
35 38 16 28 -7 -3 -4 0 7 7 21 13 115 104 115 111 0 2 -21 4 -47 4 -36 0 -39
-1 -14 -4 22 -3 30 -7 22 -12 -18 -11 -61 -1 -61 14 0 10 -21 14 -74 17 -57 2
-72 0 -69 -10 3 -7 -10 -4 -32 9 -31 19 -36 26 -30 48 46 192 110 421 118 421
5 0 16 -8 24 -17 14 -17 14 -17 9 -1 -3 10 -2 17 2 16 4 -1 57 2 119 6 172 12
169 46 -4 46 -35 0 -63 4 -63 10 0 6 -5 10 -11 10 -5 0 -8 -3 -6 -7 3 -5 -18
-9 -46 -10 l-52 -3 -94 88 -93 87 11 100 c64 589 545 1028 1131 1034 52 0 124
-4 160 -9z m376 -96 c38 -14 44 -21 44 -46 0 -37 34 -72 103 -103 57 -27 106
-32 125 -13 9 9 19 5 44 -17 162 -145 207 -204 241 -310 23 -72 24 -80 9 -84
-11 -2 -43 25 -91 77 -63 70 -74 86 -75 121 -3 49 -42 102 -105 142 -83 53
-151 60 -188 19 -18 -19 -20 -18 -121 7 l-102 25 -26 47 -26 46 31 62 c34 69
29 68 137 27z m9 -251 c72 -15 76 -18 99 -59 l24 -42 -52 -34 c-28 -18 -55
-35 -60 -37 -6 -2 -38 27 -73 65 -45 49 -63 77 -63 97 0 33 16 34 125 10z
m203 -158 c30 -16 30 -16 37 -123 3 -59 8 -119 11 -134 4 -20 1 -28 -16 -33
-12 -4 -23 -5 -24 -3 -1 1 -39 52 -85 112 -45 59 -81 112 -79 117 4 12 100 78
114 78 6 1 25 -6 42 -14z m236 -104 c44 -45 76 -84 72 -90 -11 -18 -45 -13
-64 10 -28 34 -69 51 -92 39 -26 -14 -25 -41 2 -75 19 -24 26 -27 67 -22 52 6
91 -6 91 -27 0 -8 -29 -29 -64 -46 l-63 -31 -39 26 c-21 15 -42 34 -45 43 -4
9 -10 67 -14 129 l-7 112 33 4 c19 2 36 5 39 5 3 1 41 -34 84 -77z m-312 -156
c34 -45 44 -65 37 -77 -8 -14 -20 -11 -103 21 -90 35 -94 37 -100 71 -3 19
-12 47 -20 62 -14 26 -13 28 22 56 l36 29 41 -51 c22 -28 62 -78 87 -111z
m446 -88 c18 -19 20 -30 15 -80 -3 -32 -9 -59 -12 -62 -8 -5 -133 25 -142 34
-4 3 -9 21 -12 38 -6 32 -4 34 51 62 69 36 73 37 100 8z m86 -78 c16 -39 16
-43 0 -60 -30 -33 -48 -24 -40 19 3 20 6 47 6 60 0 35 16 26 34 -19z m49 2
c12 -46 0 -51 -18 -8 -18 44 -19 50 -3 45 7 -3 16 -19 21 -37z m-205 -95 c35
-8 66 -16 69 -19 3 -3 2 -28 -2 -54 -6 -46 -8 -49 -48 -62 -25 -7 -43 -9 -45
-3 -1 5 -20 33 -42 62 -33 44 -37 55 -27 71 14 22 14 22 95 5z m139 -43 c11
-32 46 -63 70 -63 20 0 23 -5 23 -35 0 -89 -56 -140 -71 -65 -4 19 -19 44 -33
55 -21 17 -26 29 -26 66 0 25 3 49 7 52 11 12 23 8 30 -10z m-1326 -123 c13 0
17 -5 12 -16 -5 -13 -1 -15 18 -10 18 5 20 4 9 -3 -9 -5 -54 -12 -100 -14 -47
-2 -66 -2 -43 0 33 3 41 7 36 20 -5 13 -3 13 15 2 28 -18 43 -2 17 18 -17 14
-18 15 -2 9 10 -3 27 -6 38 -6z m741 -121 c33 -17 58 -66 58 -112 0 -138 -197
-172 -240 -41 -37 111 77 206 182 153z m642 -15 c11 -41 -13 -96 -60 -136 -23
-21 -50 -57 -60 -81 -11 -26 -33 -54 -56 -71 -37 -27 -38 -27 -62 -9 -29 21
-28 27 18 123 26 54 36 66 64 74 18 5 48 27 67 50 19 23 42 49 50 59 21 24 32
21 39 -9z m-1144 -34 c12 -8 9 -10 -13 -10 -16 0 -26 4 -22 10 8 12 16 12 35
0z m-54 -15 c16 -13 17 -16 4 -25 -8 -5 -22 -7 -30 -3 -8 3 -27 7 -42 7 -48 2
-42 16 8 18 l49 1 -45 7 -45 7 41 1 c22 1 49 -5 60 -13z m914 6 c0 -5 11 -23
25 -40 l26 -30 -36 -78 c-35 -77 -37 -79 -97 -105 l-60 -27 25 -30 c34 -40 50
-94 43 -137 -8 -39 1 -42 38 -13 24 19 30 20 76 8 28 -7 50 -16 50 -21 0 -16
-41 -48 -97 -77 -52 -26 -60 -27 -79 -14 -19 12 -27 12 -63 -3 -41 -16 -101
-74 -101 -97 0 -20 21 -37 45 -37 24 0 115 55 115 70 0 11 79 54 87 47 6 -6
-151 -137 -204 -171 -51 -31 -49 -31 -116 -6 -50 19 -55 24 -60 57 -6 32 -2
41 31 77 20 23 47 53 59 69 16 21 29 27 59 27 88 0 143 76 111 152 -21 50 -56
71 -117 69 -39 0 -55 4 -77 24 -25 23 -26 26 -11 35 68 41 118 113 118 170 0
35 1 35 115 66 100 27 95 26 95 15z m-1103 -107 c-3 -3 -12 -4 -19 -1 -8 3 -5
6 6 6 11 1 17 -2 13 -5z m-47 -18 c0 -3 -4 -8 -10 -11 -5 -3 -10 -1 -10 4 0 6
5 11 10 11 6 0 10 -2 10 -4z m-506 -111 c-4 -8 -8 -15 -10 -15 -2 0 -4 7 -4
15 0 8 4 15 10 15 5 0 7 -7 4 -15z m1843 -25 c21 0 12 -41 -23 -103 -29 -53
-42 -62 -77 -53 -46 12 -51 20 -36 64 15 44 83 105 107 97 8 -3 21 -5 29 -5z
m-1829 -36 c-4 -3 -12 5 -18 18 -12 22 -12 22 6 6 10 -10 15 -20 12 -24z m69
14 c-3 -8 -6 -5 -6 6 -1 11 2 17 5 13 3 -3 4 -12 1 -19z m83 13 c0 -5 -9 -7
-20 -4 -11 3 -20 7 -20 9 0 2 9 4 20 4 11 0 20 -4 20 -9z m25 -1 c3 -5 1 -10
-4 -10 -6 0 -11 5 -11 10 0 6 2 10 4 10 3 0 8 -4 11 -10z m99 -5 c-10 -8 -23
-15 -28 -15 -6 0 -1 7 10 15 10 8 23 15 28 15 6 0 1 -7 -10 -15z m-60 -30
c-25 -19 -40 -19 -24 0 7 8 20 15 28 15 13 0 12 -3 -4 -15z m-47 -41 c-3 -3
-12 -4 -19 -1 -8 3 -5 6 6 6 11 1 17 -2 13 -5z m1287 -25 c15 -12 26 -30 26
-45 0 -31 -33 -64 -65 -64 -30 0 -65 32 -65 60 0 24 42 70 63 70 8 0 26 -9 41
-21z m-1644 -108 c0 -10 57 -25 80 -21 8 1 13 0 10 -2 -3 -2 -14 -10 -24 -18
-13 -10 -17 -10 -12 -2 4 6 2 12 -3 12 -10 0 -15 -14 -12 -32 0 -5 -4 -8 -9
-8 -13 0 -13 6 0 31 9 16 7 19 -13 19 -14 0 -30 7 -37 15 -10 12 -10 15 4 15
9 0 16 -4 16 -9z m-23 -43 c-3 -8 -6 -5 -6 6 -1 11 2 17 5 13 3 -3 4 -12 1
-19z m33 2 c0 -5 -2 -10 -4 -10 -3 0 -8 5 -11 10 -3 6 -1 10 4 10 6 0 11 -4
11 -10z m-10 -41 c0 -5 -4 -9 -10 -9 -5 0 -10 7 -10 16 0 8 5 12 10 9 6 -3 10
-10 10 -16z m61 -207 c-13 -2 -27 0 -32 5 -6 6 3 7 23 4 28 -4 29 -6 9 -9z
m1417 -64 c-39 -21 -217 -80 -229 -76 -5 2 13 29 39 60 43 52 50 56 79 51 17
-3 39 -1 49 5 11 6 29 4 56 -6 l40 -16 -34 -18z m-1358 -112 c0 -3 -4 -8 -10
-11 -5 -3 -10 -1 -10 4 0 6 5 11 10 11 6 0 10 -2 10 -4z m-68 -23 c-6 -2 -9
-9 -6 -15 4 -6 -2 -5 -15 1 -27 15 -27 16 7 18 15 1 21 -1 14 -4z m38 -7 c0
-2 -7 -7 -16 -10 -8 -3 -12 -2 -9 4 6 10 25 14 25 6z"/>
<path d="M2317 1692 c-26 -59 -47 -111 -47 -116 0 -5 19 -6 42 -3 57 8 99 50
105 109 6 48 -17 118 -39 118 -7 0 -34 -49 -61 -108z"/>
<path d="M1644 1669 c-4 -8 1 -9 16 -4 15 5 20 4 16 -4 -5 -7 -1 -8 9 -4 13 5
14 7 3 14 -18 12 -36 11 -44 -2z"/>
<path d="M1240 1544 l-25 -15 25 7 c14 3 29 10 35 15 15 14 -7 10 -35 -7z"/>
<path d="M1183 1433 c9 -2 23 -2 30 0 6 3 -1 5 -18 5 -16 0 -22 -2 -12 -5z"/>
<path d="M1200 1411 c1 -3 7 -17 14 -30 l13 -24 -1 30 c0 16 -7 30 -13 30 -7
0 -13 -3 -13 -6z"/>
<path d="M2075 1420 c-3 -5 -2 -10 4 -10 5 0 13 5 16 10 3 6 2 10 -4 10 -5 0
-13 -4 -16 -10z"/>
<path d="M2891 1344 c-24 -30 -26 -45 -9 -62 29 -29 88 1 88 44 0 48 -48 58
-79 18z"/>
</g>
</svg>
